HIERARCHY
ROOT Hips
{
	OFFSET 0.000000 121.760803 0.000000
	CHANNELS 6 Xposition Yposition Zposition Xrotation Yrotation Zrotation 
	JOINT Spine
	{
		OFFSET 0.072000 7.257294 -0.789700
		CHANNELS 3 Xrotation Yrotation Zrotation
		JOINT Spine1
		{
			OFFSET 0.000000 12.508769 -0.658067
			CHANNELS 3 Xrotation Yrotation Zrotation
			JOINT Spine1_split
			{
				OFFSET 0.000000 12.508769 -0.658067
				CHANNELS 3 Xrotation Yrotation Zrotation
				JOINT Spine2
				{
					OFFSET 0.000000 12.508769 -0.658067
					CHANNELS 3 Xrotation Yrotation Zrotation
					JOINT Neck
					{
						OFFSET 0.000000 14.033295 7.520400
						CHANNELS 3 Xrotation Yrotation Zrotation
						JOINT Head
						{
							OFFSET 0.000000 8.198502 5.703100
							CHANNELS 3 Xrotation Yrotation Zrotation
							JOINT HeadTop_End
							{
								OFFSET 0.000000 17.760803 13.332701
								CHANNELS 3 Xrotation Yrotation Zrotation
								End Site
								{
									OFFSET 0.000000 0.000000 0.000000
								}
							}
						}
					}
					JOINT LeftShoulder
					{
						OFFSET 6.292450 5.785301 -0.669000
						CHANNELS 3 Xrotation Yrotation Zrotation
						JOINT LeftShoulder_split
						{
							OFFSET 6.292450 5.785301 -0.669000
							CHANNELS 3 Xrotation Yrotation Zrotation
							JOINT LeftArm
							{
								OFFSET 13.907140 -6.093903 1.965100
								CHANNELS 3 Xrotation Yrotation Zrotation
								JOINT LeftForeArm
								{
									OFFSET 34.140198 0.000000 0.000000
									CHANNELS 3 Xrotation Yrotation Zrotation
									JOINT LeftHand
									{
										OFFSET 40.960209 0.000000 0.000000
										CHANNELS 3 Xrotation Yrotation Zrotation
										JOINT LeftHandThumb1
										{
											OFFSET 10.006996 -7.170425 9.573125
											CHANNELS 3 Xrotation Yrotation Zrotation
											JOINT LeftHandThumb2
											{
												OFFSET 1.835007 -1.059448 1.059443
												CHANNELS 3 Xrotation Yrotation Zrotation
												JOINT LeftHandThumb3
												{
													OFFSET 2.112267 -1.219513 1.219518
													CHANNELS 3 Xrotation Yrotation Zrotation
													JOINT LeftHandThumb4
													{
														OFFSET 4.843811 -2.796570 2.796576
														CHANNELS 3 Xrotation Yrotation Zrotation
														End Site
														{
															OFFSET 0.000000 0.000000 0.000000
														}
													}
												}
											}
										}
										JOINT LeftHandIndex1
										{
											OFFSET 18.389847 -0.922348 4.596882
											CHANNELS 3 Xrotation Yrotation Zrotation
											JOINT LeftHandIndex2
											{
												OFFSET 4.711273 0.000000 0.000000
												CHANNELS 3 Xrotation Yrotation Zrotation
												JOINT LeftHandIndex3
												{
													OFFSET 2.886131 0.000000 0.000000
													CHANNELS 3 Xrotation Yrotation Zrotation
													JOINT LeftHandIndex4
													{
														OFFSET 6.145912 0.000000 0.000000
														CHANNELS 3 Xrotation Yrotation Zrotation
														End Site
														{
															OFFSET 0.000000 0.000000 0.000000
														}
													}
												}
											}
										}
										JOINT LeftHandMiddle1
										{
											OFFSET 18.013008 0.000000 0.000000
											CHANNELS 3 Xrotation Yrotation Zrotation
											JOINT LeftHandMiddle2
											{
												OFFSET 4.946693 0.000000 0.000000
												CHANNELS 3 Xrotation Yrotation Zrotation
												JOINT LeftHandMiddle3
												{
													OFFSET 3.342232 0.000000 0.000000
													CHANNELS 3 Xrotation Yrotation Zrotation
													JOINT LeftHandMiddle4
													{
														OFFSET 4.461754 0.000000 0.000000
														CHANNELS 3 Xrotation Yrotation Zrotation
														End Site
														{
															OFFSET 0.000000 0.000000 0.000000
														}
													}
												}
											}
										}
										JOINT LeftHandRing1
										{
											OFFSET 15.849892 -0.102921 -4.126150
											CHANNELS 3 Xrotation Yrotation Zrotation
											JOINT LeftHandRing2
											{
												OFFSET 3.527054 0.000000 0.000000
												CHANNELS 3 Xrotation Yrotation Zrotation
												JOINT LeftHandRing3
												{
													OFFSET 2.961098 0.000000 0.000000
													CHANNELS 3 Xrotation Yrotation Zrotation
													JOINT LeftHandRing4
													{
														OFFSET 4.927200 0.000000 0.000000
														CHANNELS 3 Xrotation Yrotation Zrotation
														End Site
														{
															OFFSET 0.000000 0.000000 0.000000
														}
													}
												}
											}
										}
										JOINT LeftHandPinky1
										{
											OFFSET 12.791824 -0.832031 -6.799156
											CHANNELS 3 Xrotation Yrotation Zrotation
											JOINT LeftHandPinky2
											{
												OFFSET 3.327133 0.000000 0.000000
												CHANNELS 3 Xrotation Yrotation Zrotation
												JOINT LeftHandPinky3
												{
													OFFSET 3.014900 0.000000 0.000000
													CHANNELS 3 Xrotation Yrotation Zrotation
													JOINT LeftHandPinky4
													{
														OFFSET 5.847786 0.000000 0.000000
														CHANNELS 3 Xrotation Yrotation Zrotation
														End Site
														{
															OFFSET 0.000000 0.000000 0.000000
														}
													}
												}
											}
										}
									}
								}
							}
						}
					}
					JOINT RightShoulder
					{
						OFFSET -6.292450 5.785301 -0.669000
						CHANNELS 3 Xrotation Yrotation Zrotation
						JOINT RightShoulder_split
						{
							OFFSET -6.292450 5.785301 -0.669000
							CHANNELS 3 Xrotation Yrotation Zrotation
							JOINT RightArm
							{
								OFFSET -13.907140 -6.093903 1.965100
								CHANNELS 3 Xrotation Yrotation Zrotation
								JOINT RightForeArm
								{
									OFFSET -34.140198 0.000000 0.000000
									CHANNELS 3 Xrotation Yrotation Zrotation
									JOINT RightHand
									{
										OFFSET -40.960209 0.000000 0.000000
										CHANNELS 3 Xrotation Yrotation Zrotation
										JOINT RightHandThumb1
										{
											OFFSET -10.007050 -7.170456 9.573117
											CHANNELS 3 Xrotation Yrotation Zrotation
											JOINT RightHandThumb2
											{
												OFFSET -1.835007 -1.059448 1.059443
												CHANNELS 3 Xrotation Yrotation Zrotation
												JOINT RightHandThumb3
												{
													OFFSET -2.112267 -1.219513 1.219518
													CHANNELS 3 Xrotation Yrotation Zrotation
													JOINT RightHandThumb4
													{
														OFFSET -4.843834 -2.796585 2.796590
														CHANNELS 3 Xrotation Yrotation Zrotation
														End Site
														{
															OFFSET 0.000000 0.000000 0.000000
														}
													}
												}
											}
										}
										JOINT RightHandIndex1
										{
											OFFSET -18.389870 -0.922424 4.596786
											CHANNELS 3 Xrotation Yrotation Zrotation
											JOINT RightHandIndex2
											{
												OFFSET -4.711273 0.000000 0.000000
												CHANNELS 3 Xrotation Yrotation Zrotation
												JOINT RightHandIndex3
												{
													OFFSET -2.886131 0.000000 0.000000
													CHANNELS 3 Xrotation Yrotation Zrotation
													JOINT RightHandIndex4
													{
														OFFSET -6.145920 0.000000 0.000000
														CHANNELS 3 Xrotation Yrotation Zrotation
														End Site
														{
															OFFSET 0.000000 0.000000 0.000000
														}
													}
												}
											}
										}
										JOINT RightHandMiddle1
										{
											OFFSET -18.013008 0.000000 0.000000
											CHANNELS 3 Xrotation Yrotation Zrotation
											JOINT RightHandMiddle2
											{
												OFFSET -4.946693 0.000000 0.000000
												CHANNELS 3 Xrotation Yrotation Zrotation
												JOINT RightHandMiddle3
												{
													OFFSET -3.342232 0.000000 0.000000
													CHANNELS 3 Xrotation Yrotation Zrotation
													JOINT RightHandMiddle4
													{
														OFFSET -4.461754 0.000000 0.000000
														CHANNELS 3 Xrotation Yrotation Zrotation
														End Site
														{
															OFFSET 0.000000 0.000000 0.000000
														}
													}
												}
											}
										}
										JOINT RightHandRing1
										{
											OFFSET -15.849876 -0.102936 -4.126237
											CHANNELS 3 Xrotation Yrotation Zrotation
											JOINT RightHandRing2
											{
												OFFSET -3.527054 0.000000 0.000000
												CHANNELS 3 Xrotation Yrotation Zrotation
												JOINT RightHandRing3
												{
													OFFSET -2.961098 0.000000 0.000000
													CHANNELS 3 Xrotation Yrotation Zrotation
													JOINT RightHandRing4
													{
														OFFSET -4.927200 0.000000 0.000000
														CHANNELS 3 Xrotation Yrotation Zrotation
														End Site
														{
															OFFSET 0.000000 0.000000 0.000000
														}
													}
												}
											}
										}
										JOINT RightHandPinky1
										{
											OFFSET -12.791786 -0.832077 -6.799222
											CHANNELS 3 Xrotation Yrotation Zrotation
											JOINT RightHandPinky2
											{
												OFFSET -3.327133 0.000000 0.000000
												CHANNELS 3 Xrotation Yrotation Zrotation
												JOINT RightHandPinky3
												{
													OFFSET -3.014900 0.000000 0.000000
													CHANNELS 3 Xrotation Yrotation Zrotation
													JOINT RightHandPinky4
													{
														OFFSET -5.847786 0.000000 0.000000
														CHANNELS 3 Xrotation Yrotation Zrotation
														End Site
														{
															OFFSET 0.000000 0.000000 0.000000
														}
													}
												}
											}
										}
									}
								}
							}
						}
					}
				}
			}
		}
	}
	JOINT LeftUpLeg
	{
		OFFSET 13.026900 -6.336304 -1.092800
		CHANNELS 3 Xrotation Yrotation Zrotation
		JOINT LeftLeg
		{
			OFFSET 0.524474 -46.096886 9.782700
			CHANNELS 3 Xrotation Yrotation Zrotation
			JOINT LeftFoot
			{
				OFFSET -0.524474 -53.427422 -12.948200
				CHANNELS 3 Xrotation Yrotation Zrotation
				JOINT LeftToeBase
				{
					OFFSET 0.192200 -14.009700 16.364100
					CHANNELS 3 Xrotation Yrotation Zrotation
					JOINT LeftToe_End
					{
						OFFSET -1.784700 -0.561700 9.474800
						CHANNELS 3 Xrotation Yrotation Zrotation
						End Site
						{
							OFFSET 0.000000 0.000000 0.000000
						}
					}
				}
			}
		}
	}
	JOINT RightUpLeg
	{
		OFFSET -12.883000 -6.336304 -1.092800
		CHANNELS 3 Xrotation Yrotation Zrotation
		JOINT RightLeg
		{
			OFFSET -0.524587 -46.096825 9.782800
			CHANNELS 3 Xrotation Yrotation Zrotation
			JOINT RightFoot
			{
				OFFSET 0.524587 -53.427383 -12.948300
				CHANNELS 3 Xrotation Yrotation Zrotation
				JOINT RightToeBase
				{
					OFFSET -0.192200 -14.009700 16.364100
					CHANNELS 3 Xrotation Yrotation Zrotation
					JOINT RightToe_End
					{
						OFFSET 1.784700 -0.561700 9.474800
						CHANNELS 3 Xrotation Yrotation Zrotation
						End Site
						{
							OFFSET 0.000000 0.000000 0.000000
						}
					}
				}
			}
		}
	}
}
MOTION
Frames: 4
Frame Time: 0.016667
-1.108614 116.284309 0.207535 -8.988464 -5.604666 9.449384 2.433526 1.500352 -6.152622 4.666352 1.729999 -2.802044 0.000000 0.000000 0.000000 4.685184 1.690012 -2.793393 -2.808737 -0.350888 -5.041333 -1.723853 -2.292228 2.025737 -0.000000 -0.000000 -0.000000 4.034697 -13.464710 -7.420045 0.000000 0.000000 0.000000 5.772112 3.721073 -60.112918 11.491846 -25.077055 -5.820588 -8.196588 -3.557938 7.163522 -21.992150 17.035885 -2.008529 5.703913 22.366216 5.520003 0.000000 0.000006 -0.000024 -0.000000 0.000000 -0.000000 -2.899127 12.800598 -7.221972 2.739054 6.814373 -29.837634 0.000003 0.000002 0.000010 -0.000001 -0.000000 0.000001 -8.983035 7.076832 -9.539564 4.275440 7.169714 -39.702346 0.000007 -0.000003 -0.000008 0.000001 0.000000 0.000005 -16.256873 8.648360 -21.626585 4.109023 6.928485 -36.756957 -0.000002 0.000005 -0.000008 0.000001 -0.000000 -0.000002 -21.808796 10.570000 -31.866914 1.910800 2.504679 -24.353774 0.000000 -0.000002 -0.000002 0.000000 -0.000000 0.000001 3.919269 12.466716 7.900379 0.000000 0.000000 0.000000 -3.939676 -11.622640 68.565066 15.857368 12.603587 4.140672 -8.305444 0.914265 -6.259037 -21.991981 -17.035465 2.009234 5.703621 -22.367066 -5.520850 0.000007 0.000004 -0.000015 -0.000001 0.000001 -0.000001 -2.899132 -12.801059 7.221836 2.738675 -6.813216 29.837818 0.000001 -0.000004 -0.000005 -0.000001 0.000000 0.000002 -8.983056 -7.076434 9.538902 4.275415 -7.169934 39.704054 0.000005 -0.000003 -0.000001 -0.000000 -0.000000 -0.000002 -16.256649 -8.649603 21.626351 4.109540 -6.928328 36.756301 -0.000003 0.000003 0.000006 -0.000000 -0.000000 -0.000001 -21.809405 -10.568768 31.865950 1.910739 -2.505952 24.353738 -0.000000 0.000001 -0.000005 -0.000000 -0.000000 -0.000001 7.793421 15.589437 -13.610144 11.657539 -0.078014 -0.224907 -8.388674 -0.413291 4.325650 -0.000006 0.000006 -0.000002 0.000000 0.000000 -0.000000 -8.533532 -13.164767 -25.551072 23.031685 0.190149 0.219103 -6.539595 -9.499431 8.484224 -0.000167 0.000015 0.000189 -0.000000 0.000001 0.000000 
-1.167843 116.232895 0.224163 -9.080829 -5.519122 9.253972 2.551908 1.448718 -6.024262 4.913430 1.686253 -2.761732 0.000000 0.000000 0.000000 4.931894 1.643645 -2.752655 -3.587674 -0.245977 -5.289812 -1.743662 -2.215875 1.752009 -0.000000 0.000000 0.000000 3.979137 -13.925285 -7.123389 0.000000 0.000000 0.000000 8.808454 0.870776 -59.276166 9.104193 -28.163821 -6.388877 -8.185924 -3.893770 7.156325 -21.796573 17.067024 -2.254241 5.203267 22.372768 5.475973 0.000000 0.000007 -0.000025 0.000000 0.000000 -0.000001 -2.942356 12.989530 -7.794524 2.737331 6.823867 -30.157519 0.000003 0.000002 0.000008 -0.000002 -0.000001 -0.000000 -8.964742 7.351981 -10.247551 4.392795 7.266430 -40.753932 0.000007 -0.000004 -0.000007 0.000000 -0.000000 -0.000001 -16.096201 8.801833 -21.946455 4.244155 7.047117 -37.953821 -0.000004 0.000004 -0.000005 0.000001 0.000001 0.000001 -21.489848 10.821468 -32.647256 2.037495 2.734380 -25.918462 0.000001 -0.000001 0.000001 -0.000000 0.000000 0.000001 3.867132 12.882169 7.705445 0.000000 0.000000 0.000000 -3.144263 -10.625765 68.163095 17.220654 14.146987 3.950140 -8.237059 -0.271353 -5.322062 -21.973239 -16.867419 2.049162 5.973373 -23.678893 -5.152960 0.000007 0.000006 -0.000015 0.000001 0.000002 0.000000 -2.802267 -12.889474 8.069510 2.700041 -6.811026 29.794655 -0.000001 -0.000003 -0.000003 -0.000001 -0.000001 -0.000001 -9.075016 -7.233162 10.442678 4.430273 -7.269919 40.816804 0.000005 -0.000003 -0.000007 -0.000001 0.000000 0.000002 -16.277755 -8.826604 22.153679 4.270814 -7.005737 38.208027 -0.000002 0.000003 0.000009 -0.000000 -0.000000 0.000003 -21.881018 -10.795292 31.748434 2.048322 -2.646570 25.644160 0.000001 -0.000001 0.000000 0.000000 -0.000000 -0.000002 7.174006 15.670802 -13.240829 12.695718 -0.154394 -0.215667 -8.285584 -0.318281 4.507016 -0.000009 -0.000000 0.000001 -0.000000 -0.000000 0.000000 -8.545059 -13.108785 -25.304618 23.326920 0.066933 0.192288 -6.483756 -9.507419 8.280850 -0.079431 -0.000142 0.093503 -0.000000 0.000001 -0.000000 
-1.265842 116.305466 0.303234 -9.267861 -5.359331 8.951753 2.786111 1.375172 -5.893833 5.395335 1.608661 -2.665655 0.000000 0.000000 0.000000 5.413140 1.560643 -2.655693 -4.963399 -0.057444 -5.756623 -1.813866 -2.079885 1.239584 0.000000 0.000000 0.000001 3.884198 -14.711370 -6.633769 0.000000 0.000000 0.000000 14.149920 -3.920240 -57.208114 5.105487 -33.594982 -7.629419 -8.168614 -4.251233 7.302860 -21.332264 17.091719 -2.837976 3.958067 22.289160 5.402746 -0.000001 0.000007 -0.000026 0.000000 -0.000001 -0.000001 -3.076568 13.365435 -9.160872 2.825258 6.942460 -31.688827 0.000002 0.000002 0.000007 -0.000002 -0.000001 0.000002 -8.994085 7.873345 -11.761434 4.679767 7.511360 -43.257473 0.000005 -0.000005 -0.000010 -0.000001 0.000001 0.000000 -15.795531 9.131210 -22.750954 4.548034 7.323667 -40.771517 -0.000003 0.000003 -0.000010 -0.000000 0.000000 0.000003 -20.863667 11.238474 -34.243645 2.364631 3.249451 -29.568295 -0.000001 -0.000000 0.000002 0.000000 0.000001 0.000003 3.778977 13.585870 7.369179 0.000000 0.000000 0.000000 -1.561295 -8.690968 67.291133 19.661260 17.108678 3.253668 -8.102056 -2.099962 -3.619094 -21.920083 -16.431924 2.146741 5.822815 -25.325648 -4.915328 0.000006 -0.000001 -0.000018 0.000001 -0.000001 0.000001 -2.709168 -13.063772 9.415227 2.637324 -6.812455 29.750788 -0.000000 -0.000007 -0.000003 -0.000000 -0.000002 -0.000002 -9.249259 -7.574073 11.793334 4.704350 -7.483152 42.958721 0.000004 -0.000004 -0.000006 0.000000 -0.000000 0.000001 -16.291704 -9.133654 22.933040 4.484997 -7.133884 40.801720 -0.000002 0.000002 0.000010 -0.000000 -0.000000 -0.000004 -22.155945 -11.243187 31.536739 2.308635 -2.917796 28.251684 0.000000 0.000000 -0.000004 -0.000000 -0.000001 0.000002 6.174579 15.766167 -12.623180 14.297724 -0.208676 -0.226127 -7.430264 -0.153575 4.777455 0.000003 -0.000000 0.000001 0.000000 0.000001 -0.000000 -8.419408 -13.101957 -25.025437 23.612720 0.084488 0.199453 -5.637906 -9.616901 8.632709 -0.541983 -0.006007 0.636381 -0.000000 0.000000 -0.000000 
-1.325859 116.590996 0.542765 -9.491346 -5.164984 8.621282 3.042654 1.317554 -5.837154 5.918542 1.537689 -2.526866 0.000000 0.000000 0.000000 5.935775 1.483429 -2.515835 -6.201182 0.091968 -6.231189 -2.418390 -1.955305 0.684862 -0.000000 0.000000 0.000001 3.794425 -15.397644 -6.279943 0.000000 0.000000 0.000000 19.088022 -7.935482 -54.787953 2.088986 -38.551077 -8.015096 -8.160012 -4.316242 7.783469 -20.667459 17.055903 -3.671379 2.093568 21.990047 5.341735 0.000000 0.000007 -0.000023 -0.000001 0.000001 -0.000000 -3.328981 13.761966 -11.122463 3.108028 7.224227 -34.978283 -0.000000 0.000000 0.000004 -0.000002 0.000000 0.000000 -9.153358 8.386887 -13.672323 5.098731 7.862115 -46.821647 0.000007 -0.000008 -0.000011 -0.000001 0.000000 0.000001 -15.503464 9.530022 -23.916874 4.949147 7.703895 -44.692342 -0.000005 0.000005 -0.000005 0.000001 -0.000000 0.000001 -20.170264 11.554913 -36.157351 2.865203 3.935193 -34.609012 -0.000001 0.000002 0.000000 -0.000002 -0.000001 -0.000002 3.699332 14.186510 7.099045 0.000000 0.000000 0.000000 0.249525 -6.540140 66.152076 22.073783 20.344039 2.093869 -7.944383 -3.252925 -1.946578 -21.837800 -15.758128 2.290942 4.826194 -25.921261 -5.103671 0.000007 -0.000001 -0.000014 0.000000 0.000006 -0.000000 -2.750371 -13.242989 10.381507 2.660936 -6.889622 30.409583 -0.000001 -0.000005 -0.000004 0.000000 -0.000001 -0.000001 -9.463694 -7.971137 12.505458 4.961997 -7.753087 45.326320 0.000005 -0.000002 -0.000006 -0.000002 -0.000000 0.000001 -16.257544 -9.400682 23.322058 4.532903 -7.232896 43.244171 -0.000003 0.000002 0.000009 -0.000000 0.000001 -0.000003 -22.702109 -11.736728 31.293844 2.545876 -3.202603 31.286108 -0.000000 0.000000 -0.000005 -0.000000 0.000000 0.000001 5.887830 15.698379 -12.154305 14.865721 -0.236022 -0.230186 -6.424011 -0.042184 5.040986 -0.151924 0.000481 -0.179732 -0.000000 0.000000 -0.000000 -8.045692 -13.386340 -24.753809 23.455373 0.092864 0.201484 -4.422133 -9.561130 9.067407 -1.046561 -0.022406 1.225788 -0.000000 0.000002 -0.000000 
